<svg width="24" height="23" viewBox="0 0 24 23" fill="none" xmlns="http://www.w3.org/2000/svg">
    <g clip-path="url(#clip0_2_141)">
        <path
            d="M23.4879 11.7152C23.4879 10.7729 23.4097 10.0852 23.2403 9.37216H12.2291V13.6252H18.6924C18.5622 14.6822 17.8585 16.2739 16.2948 17.3435L16.2728 17.4859L19.7544 20.1215L19.9956 20.145C22.2108 18.1458 23.4879 15.2042 23.4879 11.7152Z"
            fill="#4285F4" />
        <path
            d="M12.229 22.921C15.3955 22.921 18.0538 21.9022 19.9955 20.145L16.2947 17.3435C15.3043 18.0184 13.9751 18.4895 12.229 18.4895C9.12767 18.4895 6.49543 16.4904 5.5571 13.7271L5.41957 13.7386L1.79942 16.4763L1.75208 16.605C3.68064 20.3487 7.64207 22.921 12.229 22.921Z"
            fill="#34A853" />
        <path
            d="M5.5572 13.7271C5.30961 13.0141 5.16633 12.25 5.16633 11.4605C5.16633 10.671 5.30961 9.90695 5.54417 9.19387L5.53761 9.042L1.87209 6.26022L1.75217 6.31597C0.95731 7.86952 0.501221 9.6141 0.501221 11.4605C0.501221 13.3069 0.95731 15.0514 1.75217 16.605L5.5572 13.7271Z"
            fill="#FBBC05" />
        <path
            d="M12.229 4.43136C14.4312 4.43136 15.9167 5.36093 16.7638 6.13775L20.0736 2.97973C18.0409 1.13332 15.3955 0 12.229 0C7.64208 0 3.68064 2.57222 1.75208 6.31596L5.54408 9.19385C6.49543 6.4306 9.12767 4.43136 12.229 4.43136Z"
            fill="#EB4335" />
    </g>
    <defs>
        <clipPath id="clip0_2_141">
            <rect width="23" height="23" fill="white" transform="translate(0.5)" />
        </clipPath>
    </defs>
</svg>
