<svg id="Layer_1" data-name="Layer 1" xmlns="http://www.w3.org/2000/svg" viewBox="0 0 350.74 351.66"><path d="M174.61.17,160,15.1c-14.18,14.5-28.42,28.95-42.51,43.54-2,2-3.64,2.37-6.32,1.62C88.6,54,64.44,68.78,59.79,91.58c-4.87,23.92,10.66,46.59,34.33,50.1a41.54,41.54,0,0,0,46.61-52.12c-.65-2.4-.38-3.86,1.41-5.66,26.9-27,53.68-54.13,80.61-81.11A9.27,9.27,0,0,1,228.67.28C260.25.13,291.85.51,323.43,0,339-.21,350.78,11.75,350.74,27.45q-.33,147.44-.11,294.87v4.49c-1.51-1.4-2.49-2.22-3.37-3.12Q320,295.76,292.77,267.87a5,5,0,0,1-1.48-5.66c6.49-23.09-8.15-47.16-31.49-52A41.69,41.69,0,0,0,210,245c-4.59,29.63,23.18,54.35,52.11,46.34,2-.56,3.58-.86,5.39,1q27.58,28.72,55.38,57.24a20.36,20.36,0,0,1,1.31,1.65c-1.55.1-2.69.24-3.83.24-97.62,0-195.25-.15-292.87.17C11.93,351.72-.06,339.83,0,324Q.54,175.78,0,27.52C0,12.28,11.44-.16,27.58,0c47.51.48,95,.17,142.55.17ZM59.08,251a42.57,42.57,0,0,0,0,5.3c3.06,24.21,25.67,40.36,49.88,35.69,23.31-4.49,38.08-28.42,31.76-51.68-.69-2.57-.33-4.1,1.57-6q46.16-45.95,92.11-92.09a4.94,4.94,0,0,1,5.64-1.5,41.36,41.36,0,0,0,52.66-40.79c-.31-17.22-8.63-30-24.19-37.13s-31-5.18-44.24,6c-13,11.07-17.54,25.48-13.4,42.22.71,2.86.35,4.57-1.77,6.69q-45.9,45.63-91.56,91.49c-1.93,1.94-3.52,2.49-6.32,1.72A41.28,41.28,0,0,0,59.08,251Z"/><path d="M117.27,101.14a16.6,16.6,0,0,1-17.44,16.11,16.86,16.86,0,0,1-16.14-17.12C84,90.93,92,83.34,101.05,83.69A16.85,16.85,0,0,1,117.27,101.14Z"/><path d="M251.06,234.4a16.87,16.87,0,0,1,17,16.73,17.21,17.21,0,0,1-17,16.86,16.88,16.88,0,0,1-16.64-16.65A16.59,16.59,0,0,1,251.06,234.4Z"/><path d="M251.32,117.28a16.61,16.61,0,0,1-16.89-16.69,16.86,16.86,0,0,1,16.78-16.91A17.18,17.18,0,0,1,268,100.28,16.9,16.9,0,0,1,251.32,117.28Z"/><path d="M117.27,251.66a16.87,16.87,0,0,1-17,16.33c-9.15-.17-16.86-8.13-16.64-17.18A16.87,16.87,0,0,1,101,234.4,16.59,16.59,0,0,1,117.27,251.66Z"/></svg>